<?xml version="1.0" standalone="no"?>
<!DOCTYPE svg PUBLIC "-//W3C//DTD SVG 20010904//EN"
 "http://www.w3.org/TR/2001/REC-SVG-20010904/DTD/svg10.dtd">
<svg version="1.0" xmlns="http://www.w3.org/2000/svg"
 width="500.000000pt" height="500.000000pt" viewBox="0 0 100.000000 100.000000"
 preserveAspectRatio="xMidYMid meet">

<g transform="translate(0.000000,2126.000000) scale(0.100000,-0.100000)"
fill="#fa292a" stroke="none">
<path d="M9880 21230 c-102 -12 -210 -36 -289 -64 -125 -44 -8046 -3408 -8152
-3462 -725 -370 -1245 -1069 -1378 -1855 -37 -213 -43 -385 -31 -782 6 -199
15 -436 20 -527 177 -2974 1039 -5904 2447 -8319 1381 -2370 3258 -4222 5598
-5525 272 -151 836 -435 978 -492 507 -204 1087 -235 1623 -89 182 50 308 102
609 251 2226 1099 4083 2692 5515 4729 1607 2285 2671 5138 3055 8190 74 594
116 1143 135 1783 12 396 5 569 -31 785 -133 782 -654 1482 -1378 1851 -118
60 -8071 3438 -8166 3468 -158 51 -400 76 -555 58z m3800 -4324 c1994 -846
3636 -1543 3649 -1549 23 -12 23 -13 22 -172 -4 -436 -56 -1121 -127 -1665
-171 -1321 -493 -2601 -959 -3815 -296 -772 -683 -1569 -1096 -2257 -1107
-1844 -2586 -3307 -4389 -4343 -277 -159 -728 -395 -755 -395 -3 0 -5 3542 -5
7871 0 7492 1 7871 18 7866 9 -2 1648 -696 3642 -1541z"/>
</g>
</svg>
